:FULLY-SPECIFIED
:FORCE-ALL-JOINTS-BE-3DOF
:DEGREES
306
root -1.30244 15.4192 -36.2103 27.5506 70.7618 23.0961
lfemur -20.3347 19.1188 -18.4899
ltibia 58.9982 -0 0
lfoot -27.2292 29.4906 -0.0100737
ltoes -4.98065 0 0
rfemur -36.1092 -10.0553 10.7854
rtibia 78.6819 -0 0
rfoot -11.9042 -14.1854 0.307471
rtoes 3.05861 -0 0
lowerback 16.5003 -2.18824 -10.0435
upperback -1.34427 -4.71112 1.93464
thorax -9.80514 -1.63957 8.98798
lowerneck -7.13672 3.47695 0.920646
upperneck 2.97766 4.80794 -4.69713
head 2.33411 2.27651 -1.4586
lclavicle -3.45885e-14 -7.95139e-16 0
lhumerus 18.8272 -15.6718 66.7643
lradius 28.5828 0 0
lwrist -42.1477 0 0
lhand -20.4715 29.5167 0
lfingers 7.12502 0 0
lthumb 5.88459 59.415 0
rclavicle -3.45885e-14 -7.95139e-16 0
rhumerus -61.0739 6.39287 -89.1735
rradius 97.5763 0 0
rwrist -66.5616 0 0
rhand -5.30554 -35.5383 0
rfingers 7.12502 0 0
rthumb 20.4998 -64.476 0
307
root -1.16394 15.4083 -36.1978 28.7552 70.7487 24.8541
lfemur -19.2396 18.0589 -18.3982
ltibia 58.2445 -0 0
lfoot -27.1441 29.3878 -0.00992103
ltoes -5.18156 0 0
rfemur -37.266 -9.76213 10.8507
rtibia 76.9993 -0 0
rfoot -11.2966 -13.6676 0.279973
rtoes 4.25199 0 0
lowerback 16.8407 -1.66903 -10.5655
upperback -1.21366 -4.18645 1.60323
thorax -9.96337 -1.36042 8.82257
lowerneck -7.01516 3.0726 0.630953
upperneck 2.93353 4.28129 -4.49596
head 2.26605 2.01873 -1.36775
lclavicle -3.55825e-14 1.43125e-14 0
lhumerus 20.0061 -19.203 66.5115
lradius 30.1479 0 0
lwrist -39.2049 0 0
lhand -21.0625 27.146 0
lfingers 7.12502 0 0
lthumb 5.31405 57.0593 0
rclavicle -3.55825e-14 1.43125e-14 0
rhumerus -61.579 9.01792 -91.4038
rradius 99.768 0 0
rwrist -59.0868 0 0
rhand -3.70011 -27.1622 0
rfingers 7.12502 0 0
rthumb 22.0419 -55.926 0
308
root -1.01821 15.3922 -36.1866 28.9531 70.8167 25.9038
lfemur -18.1527 16.9975 -18.3282
ltibia 57.4909 -0 0
lfoot -27.059 29.285 -0.00961571
ltoes -5.38246 0 0
rfemur -38.4214 -9.46773 10.91
rtibia 75.3167 -0 0
rfoot -10.6893 -13.1502 0.246987
rtoes 4.70271 -0 0
lowerback 17.4245 -1.20823 -10.8434
upperback -1.00099 -3.70557 1.36184
thorax -10.1664 -1.1124 8.63466
lowerneck -6.81881 2.77332 0.253512
upperneck 2.88687 3.89805 -4.22765
head 2.18604 1.83389 -1.2339
lclavicle 1.86858e-14 -4.05521e-14 0
lhumerus 21.0414 -22.6222 66.23
lradius 31.6491 0 0
lwrist -36.2614 0 0
lhand -22.7114 27.2379 0
lfingers 7.12502 0 0
lthumb 3.72181 57.1852 0
rclavicle 1.86858e-14 -4.05521e-14 0
rhumerus -61.5632 11.7713 -93.1373
rradius 102.215 0 0
rwrist -54.6852 0 0
rhand 0.548419 -20.979 0
rfingers 7.12502 0 0
rthumb 26.1156 -49.2032 0
309
root -0.871526 15.3772 -36.1717 29.1304 71.0279 27.1509
lfemur -17.073 15.9351 -18.2795
ltibia 56.7373 -0 0
lfoot -26.974 29.1822 -0.00915775
ltoes -5.58338 0 0
rfemur -39.5756 -9.17221 10.9631
rtibia 73.6341 -0 0
rfoot -10.0823 -12.6331 0.208519
rtoes 5.15342 -0 0
lowerback 18.1589 -0.700861 -11.1603
upperback -0.71245 -3.18563 1.13369
thorax -10.3731 -0.846022 8.47119
lowerneck -6.58612 2.42676 -0.0720245
upperneck 2.87965 3.44037 -3.84381
head 2.11243 1.61478 -1.07513
lclavicle 7.13637e-14 1.19271e-14 0
lhumerus 22.1654 -25.9016 66.0457
lradius 33.0369 0 0
lwrist -34.1785 0 0
lhand -23.9523 28.1299 0
lfingers 7.12502 0 0
lthumb 2.52346 58.0947 0
rclavicle 7.13637e-14 1.19271e-14 0
rhumerus -61.1001 14.762 -94.7098
rradius 105.101 0 0
rwrist -55.4721 0 0
rhand 2.99123 -14.5991 0
rfingers 7.12502 0 0
rthumb 28.4522 -42.4557 0
310
root -0.721835 15.3617 -36.1538 28.9953 71.4231 28.3115
lfemur -15.9998 14.872 -18.2519
ltibia 55.9837 -0 0
lfoot -26.8889 29.0794 -0.00854714
ltoes -5.78429 0 0
rfemur -40.7285 -8.8757 11.0102
rtibia 71.9515 -0 0
rfoot -9.47568 -12.1165 0.164578
rtoes 5.60414 -0 0
lowerback 19.1104 -0.217413 -11.4631
upperback -0.333249 -2.70799 1.00557
thorax -10.5823 -0.600542 8.42082
lowerneck -6.52859 2.08233 -0.289046
upperneck 3.02378 2.98419 -3.48775
head 2.12763 1.39236 -0.942162
lclavicle 2.3556e-14 7.15625e-15 0
lhumerus 23.2843 -28.833 65.994
lradius 34.2888 0 0
lwrist -32.8297 0 0
lhand -25.5996 27.5272 0
lfingers 7.12502 0 0
lthumb 0.932424 57.5049 0
rclavicle 2.3556e-14 7.15625e-15 0
rhumerus -60.2519 18.1877 -96.3156
rradius 108.005 0 0
rwrist -57.2304 0 0
rhand 3.50003 -6.36156 0
rfingers 7.12502 0 0
rthumb 28.9383 -34.1359 0
